<svg xmlns="http://www.w3.org/2000/svg" version="1.1" viewBox="-5.0 -10.0 110.0 135.0">
 <path d="m85.973 53.285c-0.82031-6.5977-3.7539-11.02-4.9883-12.621 1.3438-1.9102 2.6484-5.5117 2.0039-9.0977-0.56641-3.1523-2.5391-5.6562-5.707-7.2461-7.1758-3.5977-12.902 1.293-14.637 3.0547-8.6016-3.9492-15.773-2.6719-18.289-2.0078-1.2617-2.8477-4.0898-5.1719-7.4648-6.0547-3.832-1.0039-7.707 0.007812-10.637 2.7812-3.582 3.3906-4.5117 7.582-2.7539 12.461-3.5312 3.0703-6.8086 7.8281-8.0859 11.793l-0.089843 0.27344c-2.6406 7.918-3.9961 22.43 16.621 30.637 7.1992 2.8633 14.031 3.8164 19.93 3.8164 11.289 0 19.168-3.4805 19.652-3.6992 15.359-6.6094 14.938-20.102 14.441-24.082zm-15.25 22.25c-0.17578 0.082032-17.848 7.8906-38.035-0.14453-14.145-5.6328-19.637-15.625-15.461-28.145l0.097657-0.29297c1.2305-3.8281 4.5039-8.4688 7.957-11.285 0.59375-0.48438 0.35938-1.1133 0.15234-1.6719-0.62891-1.6953-2.293-6.2031 2.1992-10.453 3.3086-3.1289 6.9062-2.7812 8.7578-2.2969 3.082 0.80859 5.5977 3.0234 6.4102 5.6445 0.082031 0.26172 0.26562 0.48047 0.51172 0.60156 0.24609 0.12109 0.53125 0.13672 0.78906 0.042968 0.082032-0.03125 8.2852-2.9414 18.348 1.9609 0.41406 0.20312 0.91797 0.09375 1.2148-0.26953 0.22266-0.27734 5.582-6.6953 12.727-3.1133 2.6211 1.3125 4.1797 3.2695 4.6367 5.8086 0.57812 3.2188-0.82031 6.7539-2.0508 8.0703-0.35547 0.37891-0.35937 0.96875-0.011718 1.3555 0.039062 0.042969 4.082 4.5703 5.0273 12.188 0.45312 3.6289 0.82812 15.941-13.266 22.004z"/>
 <path d="m58.105 39.859c-0.46875-0.28906-1.0859-0.14453-1.375 0.32422-0.28906 0.46875-2.3867 2.0898-5.4922 1.7148-3.8438-0.45703-4.8789-2.75-4.9297-2.8672-0.20703-0.50781-0.78516-0.75391-1.293-0.55078-0.51172 0.20312-0.76562 0.78516-0.55859 1.2969 0.054688 0.14453 1.4453 3.5 6.5469 4.1055 0.38672 0.046876 0.76172 0.066407 1.1289 0.066407 3.2539 0 5.6641-1.6836 6.3008-2.7188 0.28906-0.46875 0.14453-1.0859-0.32422-1.375z"/>
 <path d="m31.488 40.5c-0.078125 0.11719-1.9727 3.0469-1.9727 3.0469l1.6797 1.0859s1.8633-2.8789 1.957-3.0234c0.30469-0.46094 0.17969-1.082-0.27734-1.3867-0.45703-0.30469-1.0781-0.18359-1.3867 0.27344z"/>
 <path d="m36.371 41.156c-0.48828-0.25781-1.0938-0.066406-1.3477 0.42188l-1.1719 2.2383c-0.25781 0.48828-0.066406 1.0938 0.42188 1.3477 0.14844 0.078126 0.30469 0.11328 0.46484 0.11328 0.35938 0 0.70703-0.19531 0.88672-0.53516l1.1719-2.2383c0.25781-0.48828 0.066406-1.0938-0.42188-1.3477z"/>
 <path d="m67.996 43.699c-0.46875-0.29297-1.0859-0.14844-1.3789 0.32422l-2.168 3.4922c-0.28906 0.46875-0.14844 1.0859 0.32422 1.3789 0.16406 0.10156 0.34766 0.15234 0.52734 0.15234 0.33594 0 0.66016-0.16797 0.85156-0.47266l2.168-3.4922c0.28906-0.46875 0.14844-1.0859-0.32422-1.3789z"/>
 <path d="m70.871 44.977c-0.32031 0.085938-0.55859 0.32031-0.66797 0.60547-0.15234 0.26562-0.78906 1.2109-1.3281 1.9844-0.31641 0.45312-0.20312 1.0781 0.25391 1.3906 0.17188 0.12109 0.37109 0.17969 0.57031 0.17969 0.31641 0 0.62891-0.15234 0.82422-0.42969 1.7266-2.4961 1.7188-2.5234 1.582-3.0312-0.14844-0.53125-0.69922-0.84766-1.2305-0.69922z"/>
 <path d="m36 23.938c-2.3008-1.082-4.2773-0.058594-4.6367 0.14844-1.5938 0.8125-4.2305 3.1953-3.0117 6.5195 0.64844 1.7617 2.0547 2.9766 3.8594 3.332 0.36328 0.070312 0.73047 0.10547 1.0938 0.10547 1.4727 0 2.8906-0.57031 3.8125-1.5742 1.2695-1.3867 1.8594-3.4297 1.5117-5.207-0.29297-1.4844-1.2266-2.6641-2.6289-3.3203zm-5.6328 3.0742c-0.14063-1.1055 0.74609-1.7188 1.457-1.7891 1.0781-0.10938 2.1289 1.5234 0.24219 2.5312-1.4531 0.77734-1.7031-0.74219-1.7031-0.74219zm5.1953 5.0234c-0.78125 0.50391-2.7656 0.73047-3.4805-0.50781-0.71484-1.2383 0.40234-2.3438 0.40234-2.3438 1.7773-1.7422 4.0742-1.1602 4.4414 0.003906 0.36328 1.1641-0.57812 2.3398-1.3594 2.8477z"/>
 <path d="m75.227 28.727c-1.5156-0.94922-4.9102-1.9922-7.1406 0.75781-1.1797 1.4609-1.5039 3.2891-0.88281 5.0195 0.62891 1.7578 2.1133 3.1172 3.7734 3.457 0.39063 0.082031 0.78906 0.11719 1.1914 0.11719 1.4922 0 2.9922-0.53906 4.0547-1.4922 1.1211-1.0117 1.6562-2.418 1.5039-3.957-0.25-2.5312-2.1406-3.7031-2.5039-3.9062zm-5.3516 0.95313c0.93359-0.74609 1.7656-0.24219 2.0742 0.15234 0.30859 0.39453 0.19531 1.1211-0.19922 1.4492-0.23828 0.19922-1.3789 1.0312-2.1055 0.16406-0.81641-0.96875 0.23047-1.7656 0.23047-1.7656zm4.3633 6.4609c-0.55078 0.32812-2.918 0.92188-3.5781-0.72656-0.69531-1.7383 1.207-2.707 1.418-2.8164 1.3281-0.71094 3.2148-0.23047 3.5664 0.92969 0.37891 1.25-0.60547 2.1367-1.4062 2.6133z"/>
<text x="0.0" y="117.5" font-size="5.0" font-weight="bold" font-family="Arbeit Regular, Helvetica, Arial-Unicode, Arial, Sans-serif" fill="#000000">Created by inmyheart</text><text x="0.0" y="122.5" font-size="5.0" font-weight="bold" font-family="Arbeit Regular, Helvetica, Arial-Unicode, Arial, Sans-serif" fill="#000000">from Noun Project</text></svg>