<?xml version="1.0" encoding="UTF-8" standalone="no"?>
<svg
   version="1.1"
   viewBox="-5 -10 188.97638 163.8593"
   id="svg9"
   sodipodi:docname="noun-frog-7216451_fertig.svg"
   width="188.97638"
   height="163.8593"
   inkscape:version="1.4 (e7c3feb100, 2024-10-09)"
   xmlns:inkscape="http://www.inkscape.org/namespaces/inkscape"
   xmlns:sodipodi="http://sodipodi.sourceforge.net/DTD/sodipodi-0.dtd"
   xmlns="http://www.w3.org/2000/svg"
   xmlns:svg="http://www.w3.org/2000/svg">
  <defs
     id="defs9" />
  <sodipodi:namedview
     id="namedview9"
     pagecolor="#ffffff"
     bordercolor="#000000"
     borderopacity="0.25"
     inkscape:showpageshadow="2"
     inkscape:pageopacity="0.0"
     inkscape:pagecheckerboard="0"
     inkscape:deskcolor="#d1d1d1"
     inkscape:zoom="4.1535976"
     inkscape:cx="79.088065"
     inkscape:cy="81.495617"
     inkscape:window-width="1920"
     inkscape:window-height="1011"
     inkscape:window-x="0"
     inkscape:window-y="0"
     inkscape:window-maximized="1"
     inkscape:current-layer="layer2" />
  <g
     inkscape:groupmode="layer"
     id="layer4"
     inkscape:label="Edge.Cuts">
    <path
       id="path1-3"
       style="fill:#005300;fill-opacity:1;stroke-width:2.47751"
       d="M 49.779797,-9.9991141 C 36.684913,-10.101137 24.414196,-1.3797111 19.179362,10.446058 16.16879,17.246092 16.115633,25.073091 18.167399,32.147523 8.4407775,41.672992 0.71621098,53.575604 -2.5755681,66.88408 -6.524361,81.32264 -5.933622,97.433431 1.309224,110.76299 c 7.4375605,14.05304 20.837353,23.88641 35.00927,30.44635 27.621911,12.84217 59.504468,15.9309 89.162486,9.15403 15.12279,-3.34687 30.18114,-9.44797 41.29723,-20.55661 11.08245,-10.81828 17.05662,-26.25558 17.19355,-41.64967 C 184.1361,74.21136 179.903,60.20541 172.18409,48.565841 177.64451,38.273143 178.53646,24.856872 171.94758,14.85009 165.96258,5.8275604 155.18977,0.35465676 144.43795,0.15285476 135.3238,0.05246576 126.59613,4.1293614 119.81773,10.033846 106.72121,4.6085854 92.067692,2.6641389 78.082401,5.2530344 72.063635,-4.2063501 60.932766,-9.9964211 49.779797,-9.9991141 Z" />
  </g>
  <g
     inkscape:groupmode="layer"
     id="layer2"
     inkscape:label="F.Mask">
    <path
       d="m 85.973,53.285 c -0.82031,-6.5977 -3.7539,-11.02 -4.9883,-12.621 1.3438,-1.9102 2.6484,-5.5117 2.0039,-9.0977 -0.56641,-3.1523 -2.5391,-5.6562 -5.707,-7.2461 -7.1758,-3.5977 -12.902,1.293 -14.637,3.0547 -8.6016,-3.9492 -15.773,-2.6719 -18.289,-2.0078 -1.2617,-2.8477 -4.0898,-5.1719 -7.4648,-6.0547 -3.832,-1.0039 -7.707,0.0078 -10.637,2.7812 -3.582,3.3906 -4.5117,7.582 -2.7539,12.461 -3.5312,3.0703 -6.8086,7.8281 -8.0859,11.793 l -0.08984,0.27344 c -2.6406,7.918 -3.9961,22.43 16.621,30.637 7.1992,2.8633 14.031,3.8164 19.93,3.8164 11.289,0 19.168,-3.4805 19.652,-3.6992 15.359,-6.6094 14.938,-20.102 14.441,-24.082 z m -15.25,22.25 c -0.17578,0.08203 -17.848,7.8906 -38.035,-0.14453 -14.145,-5.6328 -19.637,-15.625 -15.461,-28.145 l 0.09766,-0.29297 c 1.2305,-3.8281 4.5039,-8.4688 7.957,-11.285 0.59375,-0.48438 0.35938,-1.1133 0.15234,-1.6719 -0.62891,-1.6953 -2.293,-6.2031 2.1992,-10.453 3.3086,-3.1289 6.9062,-2.7812 8.7578,-2.2969 3.082,0.80859 5.5977,3.0234 6.4102,5.6445 0.08203,0.26172 0.26562,0.48047 0.51172,0.60156 0.24609,0.12109 0.53125,0.13672 0.78906,0.04297 0.08203,-0.03125 8.2852,-2.9414 18.348,1.9609 0.41406,0.20312 0.91797,0.09375 1.2148,-0.26953 0.22266,-0.27734 5.582,-6.6953 12.727,-3.1133 2.6211,1.3125 4.1797,3.2695 4.6367,5.8086 0.57812,3.2188 -0.82031,6.7539 -2.0508,8.0703 -0.35547,0.37891 -0.35937,0.96875 -0.01172,1.3555 0.03906,0.04297 4.082,4.5703 5.0273,12.188 0.45312,3.6289 0.82812,15.941 -13.266,22.004 z"
       id="path1"
       style="fill:#ffff00;fill-opacity:1"
       transform="matrix(2.4775062,0,0,2.4775062,-34.381504,-51.952205)" />
    <path
       d="m 58.105,39.859 c -0.46875,-0.28906 -1.0859,-0.14453 -1.375,0.32422 -0.28906,0.46875 -2.3867,2.0898 -5.4922,1.7148 -3.8438,-0.45703 -4.8789,-2.75 -4.9297,-2.8672 -0.20703,-0.50781 -0.78516,-0.75391 -1.293,-0.55078 -0.51172,0.20312 -0.76562,0.78516 -0.55859,1.2969 0.05469,0.14453 1.4453,3.5 6.5469,4.1055 0.38672,0.04688 0.76172,0.06641 1.1289,0.06641 3.2539,0 5.6641,-1.6836 6.3008,-2.7188 0.28906,-0.46875 0.14453,-1.0859 -0.32422,-1.375 z"
       id="path2"
       style="fill:#ffff00;fill-opacity:1"
       transform="matrix(2.4775062,0,0,2.4775062,-34.381504,-51.952205)" />
    <path
       d="m 31.488,40.5 c -0.07813,0.11719 -1.9727,3.0469 -1.9727,3.0469 l 1.6797,1.0859 c 0,0 1.8633,-2.8789 1.957,-3.0234 0.30469,-0.46094 0.17969,-1.082 -0.27734,-1.3867 -0.45703,-0.30469 -1.0781,-0.18359 -1.3867,0.27344 z"
       id="path3"
       style="fill:#ffff00;fill-opacity:1"
       transform="matrix(2.4775062,0,0,2.4775062,-34.381504,-51.952205)" />
    <path
       d="m 36.371,41.156 c -0.48828,-0.25781 -1.0938,-0.06641 -1.3477,0.42188 l -1.1719,2.2383 c -0.25781,0.48828 -0.06641,1.0938 0.42188,1.3477 0.14844,0.07813 0.30469,0.11328 0.46484,0.11328 0.35938,0 0.70703,-0.19531 0.88672,-0.53516 l 1.1719,-2.2383 c 0.25781,-0.48828 0.06641,-1.0938 -0.42188,-1.3477 z"
       id="path4"
       style="fill:#ffff00;fill-opacity:1"
       transform="matrix(2.4775062,0,0,2.4775062,-34.381504,-51.952205)" />
    <path
       d="m 67.996,43.699 c -0.46875,-0.29297 -1.0859,-0.14844 -1.3789,0.32422 l -2.168,3.4922 c -0.28906,0.46875 -0.14844,1.0859 0.32422,1.3789 0.16406,0.10156 0.34766,0.15234 0.52734,0.15234 0.33594,0 0.66016,-0.16797 0.85156,-0.47266 l 2.168,-3.4922 c 0.28906,-0.46875 0.14844,-1.0859 -0.32422,-1.3789 z"
       id="path5"
       style="fill:#ffff00;fill-opacity:1"
       transform="matrix(2.4775062,0,0,2.4775062,-34.381504,-51.952205)" />
    <path
       d="m 70.871,44.977 c -0.32031,0.08594 -0.55859,0.32031 -0.66797,0.60547 -0.15234,0.26562 -0.78906,1.2109 -1.3281,1.9844 -0.31641,0.45312 -0.20312,1.0781 0.25391,1.3906 0.17188,0.12109 0.37109,0.17969 0.57031,0.17969 0.31641,0 0.62891,-0.15234 0.82422,-0.42969 1.7266,-2.4961 1.7188,-2.5234 1.582,-3.0312 -0.14844,-0.53125 -0.69922,-0.84766 -1.2305,-0.69922 z"
       id="path6"
       style="fill:#ffff00;fill-opacity:1"
       transform="matrix(2.4775062,0,0,2.4775062,-34.381504,-51.952205)" />
    <path
       d="m 36,23.938 c -2.3008,-1.082 -4.2773,-0.05859 -4.6367,0.14844 -1.5938,0.8125 -4.2305,3.1953 -3.0117,6.5195 0.64844,1.7617 2.0547,2.9766 3.8594,3.332 0.36328,0.07031 0.73047,0.10547 1.0938,0.10547 1.4727,0 2.8906,-0.57031 3.8125,-1.5742 1.2695,-1.3867 1.8594,-3.4297 1.5117,-5.207 -0.29297,-1.4844 -1.2266,-2.6641 -2.6289,-3.3203 z m -5.6328,3.0742 c -0.14063,-1.1055 0.74609,-1.7188 1.457,-1.7891 1.0781,-0.10938 2.1289,1.5234 0.24219,2.5312 -1.4531,0.77734 -1.7031,-0.74219 -1.7031,-0.74219 z m 5.1953,5.0234 c -0.78125,0.50391 -2.7656,0.73047 -3.4805,-0.50781 -0.71484,-1.2383 0.40234,-2.3438 0.40234,-2.3438 1.7773,-1.7422 4.0742,-1.1602 4.4414,0.0039 0.36328,1.1641 -0.57812,2.3398 -1.3594,2.8477 z"
       id="path7"
       style="fill:#ffff00;fill-opacity:1"
       transform="matrix(2.4775062,0,0,2.4775062,-34.381504,-51.952205)" />
    <path
       d="m 75.227,28.727 c -1.5156,-0.94922 -4.9102,-1.9922 -7.1406,0.75781 -1.1797,1.4609 -1.5039,3.2891 -0.88281,5.0195 0.62891,1.7578 2.1133,3.1172 3.7734,3.457 0.39063,0.08203 0.78906,0.11719 1.1914,0.11719 1.4922,0 2.9922,-0.53906 4.0547,-1.4922 1.1211,-1.0117 1.6562,-2.418 1.5039,-3.957 -0.25,-2.5312 -2.1406,-3.7031 -2.5039,-3.9062 z m -5.3516,0.95313 c 0.93359,-0.74609 1.7656,-0.24219 2.0742,0.15234 0.30859,0.39453 0.19531,1.1211 -0.19922,1.4492 -0.23828,0.19922 -1.3789,1.0312 -2.1055,0.16406 -0.81641,-0.96875 0.23047,-1.7656 0.23047,-1.7656 z m 4.3633,6.4609 c -0.55078,0.32812 -2.918,0.92188 -3.5781,-0.72656 -0.69531,-1.7383 1.207,-2.707 1.418,-2.8164 1.3281,-0.71094 3.2148,-0.23047 3.5664,0.92969 0.37891,1.25 -0.60547,2.1367 -1.4062,2.6133 z"
       id="path8"
       style="fill:#ffff00;fill-opacity:1"
       transform="matrix(2.4775062,0,0,2.4775062,-34.381504,-51.952205)" />
  </g>
</svg>
